<?xml version="1.0" encoding="UTF-8"?>
<svg version="1.1" xmlns="http://www.w3.org/2000/svg" width="236" height="108">
<path d="M0 0 C1.01413416 -0.00679667 1.01413416 -0.00679667 2.04875588 -0.01373065 C4.29545348 -0.02630679 6.54190654 -0.02475872 8.78863525 -0.02310181 C10.40727039 -0.02909137 12.02590268 -0.0358979 13.64453125 -0.04345703 C18.02902837 -0.06108211 22.41344737 -0.06581097 26.79797649 -0.0670886 C29.54141483 -0.0685129 32.28483347 -0.0727878 35.02826691 -0.07808304 C44.61116287 -0.09657274 54.19400329 -0.1047551 63.7769165 -0.10317993 C72.69001715 -0.10197927 81.60287535 -0.12306953 90.51591468 -0.15466726 C98.18411635 -0.18087687 105.85223908 -0.19154525 113.52048516 -0.19026911 C118.09329018 -0.1897608 122.66587969 -0.1953714 127.23863983 -0.21662521 C131.54305 -0.23608641 135.84704083 -0.23607864 140.15146637 -0.22159195 C141.72393918 -0.21951239 143.29643879 -0.22415348 144.86886597 -0.23631287 C160.37384298 -0.34836721 171.7332449 3.40488723 183.18023682 14.01742554 C191.09244797 22.2606256 194.23333016 32.6530176 194.26617432 43.87680054 C194.27615952 45.08798553 194.27615952 45.08798553 194.28634644 46.32363892 C194.29642164 48.02460471 194.30116505 49.72560962 194.30084229 51.42660522 C194.30520153 53.99662254 194.34153531 56.56490028 194.37945557 59.13461304 C194.48631873 74.64454061 190.8985596 85.9563314 180.18023682 97.51742554 C172.45654281 104.93099034 162.49238807 108.50523929 151.86047363 108.53485107 C151.18438419 108.53938219 150.50829475 108.5439133 149.81171775 108.54858172 C147.56502015 108.56115786 145.31856709 108.55960979 143.07183838 108.55795288 C141.45320324 108.56394244 139.83457095 108.57074897 138.21594238 108.57830811 C133.83144526 108.59593318 129.44702627 108.60066205 125.06249714 108.60193968 C122.3190588 108.60336397 119.57564016 108.60763887 116.83220673 108.61293411 C107.24931076 108.63142382 97.66647034 108.63960617 88.08355713 108.63803101 C79.17045648 108.63683034 70.25759828 108.65792061 61.34455895 108.68951833 C53.67635728 108.71572794 46.00823456 108.72639632 38.33998847 108.72512019 C33.76718345 108.72461187 29.19459395 108.73022248 24.6218338 108.75147629 C20.31742364 108.77093749 16.01343281 108.77092972 11.70900726 108.75644302 C10.13653445 108.75436346 8.56403484 108.75900456 6.99160767 108.77116394 C-8.51336934 108.88321828 -19.87277126 105.12996384 -31.31976318 94.51742554 C-39.23197434 86.27422547 -42.37285653 75.88183348 -42.40570068 64.65805054 C-42.41235748 63.85059387 -42.41901428 63.04313721 -42.4258728 62.21121216 C-42.43594801 60.51024636 -42.44069142 58.80924145 -42.44036865 57.10824585 C-42.4447279 54.53822853 -42.48106168 51.96995079 -42.51898193 49.40023804 C-42.6258451 33.89031046 -39.03808597 22.57851967 -28.31976318 11.01742554 C-20.59606917 3.60386073 -10.63191444 0.02961178 0 0 Z " fill="#FDFEFE" transform="translate(42.06976318359375,-0.267425537109375)"/>
<path d="M0 0 C3.58902773 2.34989218 6.32774974 4.66561324 8.6875 8.3125 C9.12320313 7.76980469 9.55890625 7.22710937 10.0078125 6.66796875 C14.01210156 1.85762151 17.28033367 -2.03793631 23.78125 -2.99609375 C29.539862 -3.32149477 34.00618875 -2.0706325 38.6875 1.3125 C43.42786406 5.84676128 45.80182297 9.58080135 46.125 16.25 C46.0013245 27.95279405 37.99117482 37.57879749 30.375 45.8125 C19.13264054 56.2705088 19.13264054 56.2705088 13.3125 60.9375 C12.70664063 61.42476563 12.10078125 61.91203125 11.4765625 62.4140625 C9.6875 63.3125 9.6875 63.3125 7.6328125 63.08984375 C4.89025318 61.99392145 2.91061502 60.22684904 0.6875 58.3125 C1.5625 53.4375 1.5625 53.4375 2.6875 52.3125 C7.01240853 51.8472708 11.34685537 51.60749527 15.6875 51.3125 C15.6875 46.3625 15.6875 41.4125 15.6875 36.3125 C12.3671875 36.1171875 9.046875 35.921875 5.7265625 35.7265625 C2.6875 35.3125 2.6875 35.3125 0.6875 33.3125 C0.09850163 28.98947422 -0.05607326 24.6717546 -0.3125 20.3125 C-4.6025 20.3125 -8.8925 20.3125 -13.3125 20.3125 C-13.37308594 21.31152344 -13.43367187 22.31054688 -13.49609375 23.33984375 C-13.57988281 24.63019531 -13.66367188 25.92054687 -13.75 27.25 C-13.83121094 28.53777344 -13.91242188 29.82554688 -13.99609375 31.15234375 C-14.3125 34.3125 -14.3125 34.3125 -15.3125 35.3125 C-18.5625 35.875 -18.5625 35.875 -22.3125 35.3125 C-24.50842277 32.9112442 -25.89385141 30.22418325 -27.3125 27.3125 C-27.67988281 26.68472656 -28.04726562 26.05695312 -28.42578125 25.41015625 C-30.47969109 20.55134751 -30.20716658 14.12866641 -28.625 9.1484375 C-25.94747232 4.08344763 -21.9120951 0.78794587 -17 -2 C-10.51501551 -3.65894952 -5.88746814 -3.37791314 0 0 Z " fill="#43C0F0" transform="translate(151.3125,23.6875)"/>
<path d="M0 0 C3.58902773 2.34989218 6.32774974 4.66561324 8.6875 8.3125 C9.12320313 7.76980469 9.55890625 7.22710937 10.0078125 6.66796875 C14.01210156 1.85762151 17.28033367 -2.03793631 23.78125 -2.99609375 C29.539862 -3.32149477 34.00618875 -2.0706325 38.6875 1.3125 C43.42786406 5.84676128 45.80182297 9.58080135 46.125 16.25 C46.01238232 26.90644766 39.35799477 35.49736412 32.6875 43.3125 C32.6875 40.3125 32.6875 40.3125 34.6875 36.875 C37.44469862 31.5286041 37.64624042 26.19718258 36.6875 20.3125 C35.05753901 16.83881265 32.71121251 14.93810209 29.4375 12.9375 C23.93135693 11.68610385 19.44885587 11.38197237 14.375 14.0625 C12.00448293 16.04711894 9.79055554 18.04767095 7.6875 20.3125 C6.515625 18.81510417 5.34375 17.31770833 4.171875 15.8203125 C1.10374286 12.70373617 -1.89868303 12.004304 -6.1875 11.9375 C-11.8607188 12.05447358 -14.97748201 13.96641558 -18.9609375 17.96875 C-20.86645712 21.27311928 -20.63628141 24.36543 -20.5 28.0625 C-20.48646484 28.75988281 -20.47292969 29.45726562 -20.45898438 30.17578125 C-20.4237945 31.88835541 -20.36999155 33.60052941 -20.3125 35.3125 C-24.96042647 33.46524717 -26.27269513 30.62714446 -28.32421875 26.23828125 C-30.21211051 20.64922621 -30.45746264 14.81774874 -28.61328125 9.171875 C-25.99165893 4.08349413 -21.90015895 0.7811713 -17 -2 C-10.51501551 -3.65894952 -5.88746814 -3.37791314 0 0 Z " fill="#66EAB8" transform="translate(151.3125,23.6875)"/>
<path d="M0 0 C0.66 0 1.32 0 2 0 C1.67 1.32 1.34 2.64 1 4 C2.65 4 4.3 4 6 4 C6 2.68 6 1.36 6 0 C6.99 0 7.98 0 9 0 C8.34 3.3 7.68 6.6 7 10 C7.99 10 8.98 10 10 10 C10.66 6.7 11.32 3.4 12 0 C13.98 0 15.96 0 18 0 C18 0.99 18 1.98 18 3 C15.525 2.505 15.525 2.505 13 2 C13 2.66 13 3.32 13 4 C13.66 4.33 14.32 4.66 15 5 C14.01 5.99 13.02 6.98 12 8 C14.87311572 8.05175552 14.87311572 8.05175552 18 7 C19.76511299 4.77488786 20.77297776 2.59562397 22 0 C22.99 0 23.98 0 25 0 C25.33 2.64 25.66 5.28 26 8 C28.5654594 5.4345406 28.54046087 3.52313332 29 0 C29.99 0 30.98 0 32 0 C31.34 2.64 30.68 5.28 30 8 C31.65 7.67 33.3 7.34 35 7 C35 7.66 35 8.32 35 9 C35.66 9.33 36.32 9.66 37 10 C37.66 7.36 38.32 4.72 39 2 C38.01 2.33 37.02 2.66 36 3 C36 2.01 36 1.02 36 0 C38.97 0 41.94 0 45 0 C44.67 0.99 44.34 1.98 44 3 C43.505 2.01 43.505 2.01 43 1 C42.34 1 41.68 1 41 1 C40.67 3.97 40.34 6.94 40 10 C41.32 10 42.64 10 44 10 C44.66 6.7 45.32 3.4 46 0 C46.99 0.33 47.98 0.66 49 1 C48.34 1.99 47.68 2.98 47 4 C48.98 4 50.96 4 53 4 C52.505 2.02 52.505 2.02 52 0 C52.99 0 53.98 0 55 0 C54.34 2.97 53.68 5.94 53 9 C52.34 8.67 51.68 8.34 51 8 C51.33 7.01 51.66 6.02 52 5 C50.35 5 48.7 5 47 5 C47 6.65 47 8.3 47 10 C53.435 9.505 53.435 9.505 60 9 C59.505 8.505 59.505 8.505 59 8 C58.75 5.0625 58.75 5.0625 59 2 C62 0 62 0 64.625 0.25 C65.800625 0.62125 65.800625 0.62125 67 1 C67.495 1.99 67.495 1.99 68 3 C65.69 3 63.38 3 61 3 C61 4.32 61 5.64 61 7 C64.3634269 6.97350778 64.3634269 6.97350778 68 6 C70.33414647 3.04150073 70.33414647 3.04150073 72 0 C72.66 0 73.32 0 74 0 C74.495 4.95 74.495 4.95 75 10 C75.66 10 76.32 10 77 10 C77.66 7.03 78.32 4.06 79 1 C79.495 2.485 79.495 2.485 80 4 C80.99 4 81.98 4 83 4 C83 3.01 83 2.02 83 1 C83.66 1 84.32 1 85 1 C84.67 3.31 84.34 5.62 84 8 C84.99 8 85.98 8 87 8 C87 5.36 87 2.72 87 0 C89.31 0 91.62 0 94 0 C94 0.99 94 1.98 94 3 C92.35 2.67 90.7 2.34 89 2 C89 2.66 89 3.32 89 4 C89.99 4.495 89.99 4.495 91 5 C90.01 5 89.02 5 88 5 C88 5.99 88 6.98 88 8 C89.32 7.67 90.64 7.34 92 7 C92 7.99 92 8.98 92 10 C92.66 10 93.32 10 94 10 C94 10.66 94 11.32 94 12 C61.99 12 29.98 12 -3 12 C-2.01 8.04 -1.02 4.08 0 0 Z " fill="#6F87C3" transform="translate(35,82)"/>
<path d="M0 0 C1.65 0 3.3 0 5 0 C5 2.97 5 5.94 5 9 C7.64 9 10.28 9 13 9 C13 6.03 13 3.06 13 0 C14.65 0 16.3 0 18 0 C18 7.59 18 15.18 18 23 C16.35 23 14.7 23 13 23 C13 20.03 13 17.06 13 14 C10.36 14 7.72 14 5 14 C5 16.97 5 19.94 5 23 C3.35 23 1.7 23 0 23 C0 15.41 0 7.82 0 0 Z " fill="#2145A2" transform="translate(35,55)"/>
<path d="M0 0 C3.54817708 0.13020833 7.09635417 0.26041667 10.64453125 0.390625 C10.64453125 5.010625 10.64453125 9.630625 10.64453125 14.390625 C0 14.78125 0 14.78125 -3.35546875 14.390625 C-5.86372807 12.00955936 -6.29934359 10.83962626 -6.73046875 7.390625 C-6.12742752 2.56629517 -4.99592399 0.58159767 0 0 Z " fill="#2549A4" transform="translate(78.35546875,63.609375)"/>
<path d="M0 0 C1.65 0 3.3 0 5 0 C5.33 3.3 5.66 6.6 6 10 C7.093125 9.938125 8.18625 9.87625 9.3125 9.8125 C13 10 13 10 14.71875 11.15625 C16.50895567 13.73239963 16.2969848 15.5854308 16.1875 18.6875 C16.16042969 19.68136719 16.13335937 20.67523438 16.10546875 21.69921875 C16.07066406 22.45847656 16.03585938 23.21773437 16 24 C14.35 24 12.7 24 11 24 C10.67 21.03 10.34 18.06 10 15 C8.68 15 7.36 15 6 15 C5.67 17.97 5.34 20.94 5 24 C3.35 24 1.7 24 0 24 C0 16.08 0 8.16 0 0 Z " fill="#274AA5" transform="translate(111,54)"/>
<path d="M0 0 C2.98650688 0.61198912 4.24464634 1.89821951 5.90625 4.390625 C5.90625 5.710625 5.90625 7.030625 5.90625 8.390625 C2.60625 8.390625 -0.69375 8.390625 -4.09375 8.390625 C-4.09375 9.050625 -4.09375 9.710625 -4.09375 10.390625 C-2.423125 10.1121875 -2.423125 10.1121875 -0.71875 9.828125 C2.90625 9.390625 2.90625 9.390625 4.90625 10.390625 C3.90625 13.390625 3.90625 13.390625 1.90625 14.390625 C-3.25437661 14.89004048 -3.25437661 14.89004048 -6.09375 14.390625 C-8.85761182 11.9722459 -9.89210577 10.42405166 -10.59375 6.828125 C-9.37611827 0.8921703 -5.4849955 -0.28652962 0 0 Z " fill="#3959AC" transform="translate(65.09375,63.609375)"/>
<path d="M0 0 C1.65 0 3.3 0 5 0 C5 1.98 5 3.96 5 6 C5.99 6 6.98 6 8 6 C8 7.32 8 8.64 8 10 C7.01 10 6.02 10 5 10 C5 11.98 5 13.96 5 16 C5.99 16 6.98 16 8 16 C8 17.32 8 18.64 8 20 C5.125 20.125 5.125 20.125 2 20 C0 18 0 18 -0.1953125 16.0546875 C-0.09765625 13.02734375 -0.09765625 13.02734375 0 10 C-0.66 10 -1.32 10 -2 10 C-2 8.68 -2 7.36 -2 6 C-1.34 6 -0.68 6 0 6 C0 4.02 0 2.04 0 0 Z " fill="#294CA6" transform="translate(101,58)"/>
<path d="M0 0 C1.65 0 3.3 0 5 0 C5 1.65 5 3.3 5 5 C6.65 5 8.3 5 10 5 C10 6.65 10 8.3 10 10 C8.35 10 6.7 10 5 10 C5 11.65 5 13.3 5 15 C3.35 15 1.7 15 0 15 C0 13.35 0 11.7 0 10 C-1.65 10 -3.3 10 -5 10 C-5 8.35 -5 6.7 -5 5 C-3.35 5 -1.7 5 0 5 C0 3.35 0 1.7 0 0 Z " fill="#405FAF" transform="translate(142,59)"/>
<path d="M0 0 C1.65 0 3.3 0 5 0 C5 7.92 5 15.84 5 24 C3.35 24 1.7 24 0 24 C0 16.08 0 8.16 0 0 Z " fill="#2145A2" transform="translate(92,54)"/>
<path d="M0 0 C0.66 0.33 1.32 0.66 2 1 C1.67 3.97 1.34 6.94 1 10 C-1.97 10 -4.94 10 -8 10 C-7.34 9.67 -6.68 9.34 -6 9 C-6 8.34 -6 7.68 -6 7 C-5.02351983 5.97702078 -4.01868662 4.98095748 -3 4 C-1.98199424 2.68036291 -0.97751635 1.34990354 0 0 Z " fill="#9FAFD7" transform="translate(107,82)"/>
<path d="M0 0 C0.33 0 0.66 0 1 0 C1.17942163 3.94727588 1.09350689 6.5980513 -1 10 C-2.32 10 -3.64 10 -5 10 C-5.125 3.25 -5.125 3.25 -4 1 C-3.01 1.33 -2.02 1.66 -1 2 C-0.67 1.34 -0.34 0.68 0 0 Z " fill="#EFF2F8" transform="translate(80,82)"/>
<path d="M0 0 C1.2065625 0.0309375 1.2065625 0.0309375 2.4375 0.0625 C2.81968767 1.71864657 3.15145102 3.38707024 3.4375 5.0625 C2.4375 6.0625 2.4375 6.0625 -0.125 6.125 C-1.3315625 6.0940625 -1.3315625 6.0940625 -2.5625 6.0625 C-2.94468767 4.40635343 -3.27645102 2.73792976 -3.5625 1.0625 C-2.5625 0.0625 -2.5625 0.0625 0 0 Z " fill="#E2E6F3" transform="translate(80.5625,67.9375)"/>
<path d="M0 0 C0.66 0 1.32 0 2 0 C1.67 1.32 1.34 2.64 1 4 C2.65 4 4.3 4 6 4 C6 2.68 6 1.36 6 0 C6.99 0 7.98 0 9 0 C8.34 2.97 7.68 5.94 7 9 C6.34 8.67 5.68 8.34 5 8 C5.33 7.01 5.66 6.02 6 5 C3.56282742 5.27034634 3.56282742 5.27034634 1 6 C0.34 6.99 -0.32 7.98 -1 9 C-0.67 6.03 -0.34 3.06 0 0 Z " fill="#5671B8" transform="translate(35,82)"/>
<path d="M0 0 C0.99 0 1.98 0 3 0 C2.34 3.3 1.68 6.6 1 10 C0.01 10 -0.98 10 -2 10 C-1.125 2.25 -1.125 2.25 0 0 Z " fill="#A7B5DA" transform="translate(57,82)"/>
<path d="M0 0 C0.99 0.33 1.98 0.66 3 1 C2.01 2.485 2.01 2.485 1 4 C2.98 4 4.96 4 7 4 C6.67 2.68 6.34 1.36 6 0 C6.99 0 7.98 0 9 0 C8.34 2.97 7.68 5.94 7 9 C6.34 8.67 5.68 8.34 5 8 C5.33 7.01 5.66 6.02 6 5 C4.02 5.33 2.04 5.66 0 6 C0 4.02 0 2.04 0 0 Z " fill="#526EB7" transform="translate(81,82)"/>
<path d="M0 0 C1.46726798 3.81489674 0.43336419 6.29011622 -1 10 C-1.99 10 -2.98 10 -4 10 C-4.25 7.25 -4.25 7.25 -4 4 C-2 1.625 -2 1.625 0 0 Z " fill="#E8ECF5" transform="translate(46,82)"/>
<path d="M0 0 C2.31 0 4.62 0 7 0 C7 0.99 7 1.98 7 3 C5.35 2.67 3.7 2.34 2 2 C2 2.66 2 3.32 2 4 C2.66 4.33 3.32 4.66 4 5 C3.01 5 2.02 5 1 5 C1 6.32 1 7.64 1 9 C0.34 8.67 -0.32 8.34 -1 8 C-0.67 5.36 -0.34 2.72 0 0 Z " fill="#637DBE" transform="translate(122,82)"/>
<path d="M0 0 C1.65 0 3.3 0 5 0 C5.33 0.99 5.66 1.98 6 3 C6.33 3.66 6.66 4.32 7 5 C4.69 5 2.38 5 0 5 C0 3.35 0 1.7 0 0 Z " fill="#DFE4F2" transform="translate(82,87)"/>
<path d="M0 0 C0.33 0 0.66 0 1 0 C1.33 1.98 1.66 3.96 2 6 C1.01 6.33 0.02 6.66 -1 7 C-1 6.34 -1 5.68 -1 5 C-3.97 5 -6.94 5 -10 5 C-10 4.34 -10 3.68 -10 3 C-6.7 3 -3.4 3 0 3 C0 2.01 0 1.02 0 0 Z " fill="#F3F5FA" transform="translate(71,69)"/>
<path d="M0 0 C0.33 0 0.66 0 1 0 C1 2.64 1 5.28 1 8 C0.34 8 -0.32 8 -1 8 C-1.33 8.66 -1.66 9.32 -2 10 C-3.05236973 6.65155086 -3.20005388 5.40920111 -1.625 2.1875 C-1.08875 1.465625 -0.5525 0.74375 0 0 Z " fill="#F2F4F9" transform="translate(121,82)"/>
<path d="M0 0 C1.65 0 3.3 0 5 0 C5 0.99 5 1.98 5 3 C4.34 3 3.68 3 3 3 C3 3.66 3 4.32 3 5 C2.01 5 1.02 5 0 5 C0 3.35 0 1.7 0 0 Z " fill="#E7EBF5" transform="translate(36,87)"/>
<path d="M0 0 C2.97 0 5.94 0 9 0 C8.67 0.99 8.34 1.98 8 3 C7.67 2.34 7.34 1.68 7 1 C6.34 1 5.68 1 5 1 C5 1.66 5 2.32 5 3 C3.35 3 1.7 3 0 3 C0 2.01 0 1.02 0 0 Z " fill="#6C84C2" transform="translate(71,82)"/>
<path d="M0 0 C0.33 0.66 0.66 1.32 1 2 C-0.98 4.64 -2.96 7.28 -5 10 C-5 6.26879511 -3.81968524 4.21944311 -2 1 C-1.34 0.67 -0.68 0.34 0 0 Z " fill="#6FE9C2" transform="translate(189,57)"/>
</svg>
